<?xml version="1.0" standalone="no"?>
<!DOCTYPE svg PUBLIC "-//W3C//DTD SVG 20010904//EN"
 "http://www.w3.org/TR/2001/REC-SVG-20010904/DTD/svg10.dtd">
<svg version="1.0" xmlns="http://www.w3.org/2000/svg"
 width="512.000000pt" height="512.000000pt" viewBox="0 0 512.000000 512.000000"
 preserveAspectRatio="xMidYMid meet">
<metadata>
Created by potrace 1.16, written by Peter Selinger 2001-2019
</metadata>
<g transform="translate(0.000000,512.000000) scale(0.100000,-0.100000)"
fill="#000000" stroke="none">
<path d="M2325 5113 c-273 -33 -508 -103 -739 -219 -555 -280 -972 -794 -1126
-1388 -51 -196 -63 -314 -57 -556 4 -180 10 -235 32 -340 73 -347 232 -681
461 -970 37 -47 417 -435 843 -863 l776 -777 45 0 45 0 776 777 c426 428 806
816 843 863 106 134 201 283 276 435 154 313 220 594 220 937 0 328 -64 601
-210 895 -281 567 -786 984 -1386 1144 -188 50 -351 69 -574 67 -107 0 -208
-3 -225 -5z m405 -643 c353 -43 645 -184 896 -434 188 -188 303 -373 377 -607
58 -181 71 -270 71 -469 0 -176 -11 -270 -51 -410 -129 -461 -486 -848 -935
-1014 -568 -210 -1200 -65 -1623 375 -200 208 -330 452 -393 739 -22 101 -25
139 -25 310 0 171 3 209 25 310 63 287 192 530 393 739 252 263 572 419 950
464 66 8 235 6 315 -3z"/>
<path d="M2660 3911 c-108 -35 -191 -136 -236 -286 -13 -42 -18 -93 -18 -170
0 -146 15 -184 180 -449 l49 -79 5 -404 5 -405 24 -19 c30 -24 72 -24 102 0
l24 19 5 405 5 404 64 104 c149 240 178 318 168 459 -14 186 -96 343 -210 402
-44 22 -129 32 -167 19z"/>
<path d="M3225 3895 l-25 -24 0 -871 0 -871 25 -24 c26 -27 70 -32 96 -12 36
28 39 51 39 348 l0 292 60 54 c95 86 146 213 170 418 34 301 -12 479 -159 618
-103 97 -161 118 -206 72z"/>
<path d="M1624 3815 l-25 -26 3 -257 c3 -257 3 -257 30 -308 41 -77 71 -108
143 -145 l65 -34 0 -458 0 -458 25 -24 c32 -33 78 -33 110 0 l25 24 0 459 0
459 51 24 c65 30 121 84 156 151 l28 53 3 257 3 257 -25 26 c-33 33 -79 33
-111 0 l-25 -24 0 -231 c0 -249 -4 -274 -54 -319 l-26 -24 0 287 0 287 -25 24
c-32 33 -78 33 -110 0 l-25 -24 0 -287 0 -287 -26 24 c-50 45 -54 70 -54 319
l0 231 -25 24 c-32 33 -78 33 -111 0z"/>
</g>
</svg>
