<?xml version="1.0" encoding="utf-8"?>
<!DOCTYPE svg PUBLIC "-//W3C//DTD SVG 20010904//EN"
 "http://www.w3.org/TR/2001/REC-SVG-20010904/DTD/svg10.dtd">
<svg version="1.0" xmlns="http://www.w3.org/2000/svg"
 width="512.000000pt" height="512.000000pt" viewBox="0 0 512.000000 512.000000"
 preserveAspectRatio="xMidYMid meet">
<metadata>
Created by potrace 1.16, written by Peter Selinger 2001-2019
</metadata>
<g transform="translate(0.000000,512.000000) scale(0.100000,-0.100000)"
fill="#000000" stroke="none">
<path d="M2282 4994 c-400 -58 -785 -255 -1067 -546 -151 -155 -240 -279 -331
-460 -228 -453 -265 -977 -103 -1461 61 -184 218 -468 380 -687 163 -222 496
-651 519 -670 3 -3 57 -68 120 -145 63 -77 185 -223 270 -325 85 -103 171
-206 190 -230 19 -24 60 -73 91 -109 30 -36 88 -108 128 -158 40 -51 77 -93
81 -93 4 0 70 78 147 173 77 94 268 325 423 512 872 1050 1117 1409 1229 1800
61 211 76 319 75 545 0 200 -14 317 -60 489 -136 511 -495 951 -971 1190 -168
83 -378 148 -574 176 -129 18 -419 18 -547 -1z m546 -459 c536 -105 975 -517
1107 -1040 38 -148 48 -254 42 -415 -7 -163 -23 -252 -68 -390 -115 -349 -384
-661 -712 -827 -98 -49 -284 -108 -402 -128 -131 -22 -340 -22 -470 0 -484 82
-882 397 -1076 851 -180 422 -136 934 115 1322 117 180 293 349 481 460 144
85 355 157 530 181 98 14 354 6 453 -14z"/>
<path d="M1420 3306 c0 -93 18 -138 69 -172 52 -34 93 -40 145 -20 50 19 68
37 96 92 15 31 19 34 20 17 0 -35 66 -101 112 -114 74 -20 155 15 185 81 21
46 29 49 37 16 9 -37 62 -84 109 -97 76 -20 152 17 187 93 l16 37 18 -39 c20
-47 54 -76 107 -92 72 -21 156 21 189 94 17 38 18 39 24 15 10 -40 52 -83 98
-102 75 -30 155 1 197 76 l24 42 12 -29 c7 -16 28 -43 47 -60 68 -60 159 -53
222 16 20 22 36 50 36 63 1 17 7 11 25 -24 45 -86 135 -118 215 -77 69 35 90
75 90 169 l0 79 -553 0 c-305 0 -818 3 -1140 7 l-587 6 0 -77z"/>
</g>
</svg>
