<?xml version="1.0" standalone="no"?>
<!DOCTYPE svg PUBLIC "-//W3C//DTD SVG 20010904//EN"
 "http://www.w3.org/TR/2001/REC-SVG-20010904/DTD/svg10.dtd">
<svg version="1.0" xmlns="http://www.w3.org/2000/svg"
 width="512.000000pt" height="512.000000pt" viewBox="0 0 512.000000 512.000000"
 preserveAspectRatio="xMidYMid meet">
<metadata>
Created by potrace 1.16, written by Peter Selinger 2001-2019
</metadata>
<g transform="translate(0.000000,512.000000) scale(0.100000,-0.100000)"
fill="#000000" stroke="none">
<path d="M2325 5113 c-273 -33 -508 -103 -739 -219 -555 -280 -972 -794 -1126
-1388 -51 -196 -63 -314 -57 -556 4 -180 10 -235 32 -340 73 -347 232 -681
461 -970 37 -47 417 -435 843 -863 l776 -777 45 0 45 0 776 777 c426 428 806
816 843 863 106 134 201 283 276 435 154 313 220 594 220 937 0 328 -64 601
-210 895 -281 567 -786 984 -1386 1144 -188 50 -351 69 -574 67 -107 0 -208
-3 -225 -5z m505 -658 c384 -73 722 -284 952 -595 403 -545 393 -1294 -22
-1829 -263 -337 -643 -544 -1072 -583 -706 -65 -1376 391 -1582 1074 -47 157
-60 250 -60 438 0 188 13 281 60 438 176 586 691 1009 1309 1076 78 8 331 -3
415 -19z"/>
<path d="M2120 3790 c-228 -160 -421 -298 -427 -307 -21 -27 -15 -72 12 -98
l24 -25 831 0 831 0 24 25 c27 26 33 71 13 98 -7 9 -200 147 -428 307 -283
198 -422 290 -440 290 -18 0 -157 -92 -440 -290z m718 -81 l262 -184 -270 -3
c-148 -1 -391 -1 -539 0 l-270 3 267 187 c147 103 272 186 277 184 6 -2 128
-86 273 -187z"/>
<path d="M1865 3255 l-25 -24 0 -271 0 -271 25 -24 c15 -16 36 -25 55 -25 19
0 40 9 55 25 l25 24 0 271 0 271 -25 24 c-15 16 -36 25 -55 25 -19 0 -40 -9
-55 -25z"/>
<path d="M2185 3255 l-25 -24 0 -271 0 -271 25 -24 c15 -16 36 -25 55 -25 19
0 40 9 55 25 l25 24 0 271 0 271 -25 24 c-15 16 -36 25 -55 25 -19 0 -40 -9
-55 -25z"/>
<path d="M2505 3255 l-25 -24 0 -271 0 -271 25 -24 c15 -16 36 -25 55 -25 19
0 40 9 55 25 l25 24 0 271 0 271 -25 24 c-15 16 -36 25 -55 25 -19 0 -40 -9
-55 -25z"/>
<path d="M2825 3255 l-25 -24 0 -271 0 -271 25 -24 c15 -16 36 -25 55 -25 19
0 40 9 55 25 l25 24 0 271 0 271 -25 24 c-15 16 -36 25 -55 25 -19 0 -40 -9
-55 -25z"/>
<path d="M3145 3255 l-25 -24 0 -271 0 -271 25 -24 c15 -16 36 -25 55 -25 19
0 40 9 55 25 l25 24 0 271 0 271 -25 24 c-15 16 -36 25 -55 25 -19 0 -40 -9
-55 -25z"/>
<path d="M1705 2535 c-16 -15 -25 -36 -25 -55 0 -19 9 -40 25 -55 l24 -25 831
0 831 0 24 25 c16 15 25 36 25 55 0 19 -9 40 -25 55 l-24 25 -831 0 -831 0
-24 -25z"/>
<path d="M1545 2295 c-16 -15 -25 -36 -25 -55 0 -19 9 -40 25 -55 l24 -25 991
0 991 0 24 25 c16 15 25 36 25 55 0 19 -9 40 -25 55 l-24 25 -991 0 -991 0
-24 -25z"/>
</g>
</svg>
