<?xml version="1.0" standalone="no"?>
<!DOCTYPE svg PUBLIC "-//W3C//DTD SVG 20010904//EN"
 "http://www.w3.org/TR/2001/REC-SVG-20010904/DTD/svg10.dtd">
<svg version="1.0" xmlns="http://www.w3.org/2000/svg"
 width="512.000000pt" height="512.000000pt" viewBox="0 0 512.000000 512.000000"
 preserveAspectRatio="xMidYMid meet">
<metadata>
Created by potrace 1.16, written by Peter Selinger 2001-2019
</metadata>
<g transform="translate(0.000000,512.000000) scale(0.100000,-0.100000)"
fill="#000000" stroke="none">
<path d="M2325 5113 c-273 -33 -508 -103 -739 -219 -555 -280 -972 -794 -1126
-1388 -51 -196 -63 -314 -57 -556 4 -180 10 -235 32 -340 73 -347 232 -681
461 -970 37 -47 417 -435 843 -863 l776 -777 45 0 45 0 776 777 c426 428 806
816 843 863 106 134 201 283 276 435 154 313 220 594 220 937 0 328 -64 601
-210 895 -281 567 -786 984 -1386 1144 -188 50 -351 69 -574 67 -107 0 -208
-3 -225 -5z m400 -643 c619 -70 1140 -516 1300 -1111 30 -114 55 -292 55 -399
0 -257 -81 -550 -211 -769 -246 -410 -646 -674 -1117 -736 -143 -19 -241 -19
-384 0 -623 82 -1126 528 -1280 1135 -134 532 28 1089 430 1472 322 306 769
457 1207 408z"/>
<path d="M2512 4303 c-37 -32 -586 -906 -590 -940 -3 -24 2 -38 22 -57 21 -22
34 -26 81 -26 30 0 55 -3 55 -7 0 -4 -72 -143 -160 -309 -90 -169 -160 -314
-160 -329 0 -14 11 -37 25 -50 22 -23 31 -25 120 -25 53 0 95 -4 93 -8 -1 -4
-56 -107 -120 -229 -65 -122 -118 -233 -118 -248 0 -14 11 -37 25 -50 l24 -25
256 0 255 0 0 -135 c0 -131 1 -137 25 -160 24 -25 26 -25 215 -25 189 0 191 0
215 25 24 23 25 29 25 160 l0 135 255 0 256 0 24 25 c14 13 25 36 25 50 0 15
-53 126 -117 248 -65 121 -119 224 -121 229 -2 4 40 8 93 8 89 0 98 2 120 25
14 13 25 36 25 50 0 15 -70 160 -160 329 -88 166 -160 305 -160 309 0 4 25 7
55 7 47 0 60 4 81 26 20 19 25 33 22 57 -4 34 -553 908 -590 940 -11 9 -33 17
-48 17 -15 0 -37 -8 -48 -17z m259 -543 l200 -315 -57 -5 c-62 -6 -94 -32 -94
-77 0 -14 72 -161 160 -328 88 -166 160 -305 160 -309 0 -3 -41 -6 -91 -6 -87
0 -92 -1 -120 -29 -16 -16 -29 -37 -29 -47 0 -9 54 -119 120 -244 66 -125 120
-230 120 -234 0 -3 -261 -6 -580 -6 -319 0 -580 3 -580 6 0 4 54 109 120 234
66 125 120 235 120 244 0 10 -13 31 -29 47 -28 28 -33 29 -120 29 -50 0 -91 3
-91 6 0 4 72 143 160 309 88 167 160 314 160 328 0 45 -32 71 -94 77 l-57 5
202 318 c111 175 206 316 211 315 4 -2 98 -145 209 -318z m-131 -1840 l0 -80
-80 0 -80 0 0 80 0 80 80 0 80 0 0 -80z"/>
</g>
</svg>
